<svg version="1.2" baseProfile="tiny-ps" xmlns="http://www.w3.org/2000/svg" viewBox="0 0 24 24" width="24" height="24">
	<title>bubble-friend-svg</title>
	<style>
		tspan { white-space:pre }
		.s0 { fill: #564322 } 
	</style>
	<path id="Layer" fill-rule="evenodd" class="s0" d="m23.95 22.36c0.03 0.12 0.05 0.24 0.05 0.35c0 0.52-0.32 1-0.83 1.2l0 0c-0.6 0.23-1.29-0.01-1.6-0.58c-0.69-1.25-1.87-3.3-2.47-4.36l0.43 0.02c1.18 0 2.27-0.37 3.17-1c0.49 1.69 0.95 3.32 1.25 4.37zm-18.42 1.63l-0.23-5.69c0 0-1.9 3.2-2.87 4.94c-0.31 0.57-1 0.81-1.6 0.58l0 0c-0.51-0.2-0.83-0.68-0.83-1.2c0-0.11 0.02-0.23 0.05-0.35c0.64-2.23 2.04-6.95 2.77-9.53c0.27-0.96 1.15-1.62 2.15-1.62h9.58c-0.34 0.72-0.54 1.52-0.54 2.37c0 2.75 2.03 5.03 4.67 5.44l-0.21 5.06l-12.95 0zm18.47-10.49c0 2.48-2.02 4.5-4.5 4.5c-2.48 0-4.5-2.02-4.5-4.5c0-2.48 2.02-4.5 4.5-4.5c2.48 0 4.5 2.02 4.5 4.5zm-4-2.5h-1v2h-2v1h2v2h1v-2h2v-1h-2v-2zm-7.99-11c2.78 0 5.03 2.24 5.03 5.01c0 2.76-2.25 5.01-5.03 5.01c-2.78 0-5.03-2.24-5.03-5.01c0-2.76 2.25-5.01 5.03-5.01z" />
</svg>