<svg version="1.2" baseProfile="tiny-ps" xmlns="http://www.w3.org/2000/svg" viewBox="0 0 24 24" width="24" height="24">
	<title>bubble-world-svg</title>
	<style>
		tspan { white-space:pre }
		.s0 { fill: #564322 } 
	</style>
	<path id="Layer" fill-rule="evenodd" class="s0" d="m24 12c0 6.63-5.37 12-12 12c-6.63 0-12-5.37-12-12c0-6.63 5.37-12 12-12c6.63 0 12 5.37 12 12zm-2.43-2.9c-0.87-2.85-2.97-5.17-5.69-6.32c0.05 0.16-0.46 0.19-0.53 0.36c-0.07 0.17-0.23 0.41-0.3 0.5c-0.12 0.16-0.48 0.09-0.41-0.1c0.07-0.2 0.42-0.28-0.11-0.33c-0.54-0.05-0.69-0.41-1.23 0.04c-0.16 0.14-0.28 0.35-0.39 0.52c-0.15 0.25-0.51 0.24-0.66 0.48c-0.15 0.23 0.09 0.62 0.37 0.45c0.07-0.05 0.93 0.78 0.82 0.12c-0.07-0.44 0.24-0.74 0.24-1.08c0-0.22 0.34-0.08 0.25 0.04c-0.12 0.15-0.25 0.65 0.06 0.67c0.12 0.01 0.41-0.19 0.52-0.1c-0.12 0-0.38 0.46-0.36 0.46c-0.13 0.06-0.28-0.03-0.18 0.25c0.09 0.28-0.5 0.24-0.6 0.3c-0.04 0.02-0.5-0.14-0.49-0.03c-0.16-0.13 0.05-0.46-0.09-0.51c-0.13 0.21-0.07 0.62-0.36 0.62c-0.24 0-0.58 0.28-0.73 0.45c-0.1 0.11-0.74 0.37-0.81 0.36c0.36 0.04 0.34 0.3 0.32 0.53c-0.07 0.53-1.21 0.04-1.16 0.24c0.05 0.19-0.13 0.71-0.17 0.88c-0.04 0.15 0.49 0.25 0.46 0.32c0-0.01 0.71-0.24 0.78-0.3l0.16-0.36c0.13-0.09 0.27-0.16 0.42-0.22c0.05-0.11 0.11-0.21 0.18-0.31c0.06-0.02 0.78-0.13 0.83-0.11c0.18 0.08 0.52 0.43 0.64 0.58c0.04 0.06 0.28 0.14 0.28 0.23c0.08 0.13-0.06 0.18-0.01 0.27c0.13 0.23 0.16-0.49 0.11-0.35c0-0.23 0.17 0.08 0.21 0.06l-0.8-0.79c-0.25-0.42 0.66 0.22 0.78 0.3c0.11 0.08 0.34 0.76 0.65 0.61c0.19-0.1 0-0.17 0.13-0.28c0.2-0.15 0.36 0.02 0.54-0.11c-0.41 0.3 0.28 0.7 0.23 0.68c0.19 0.08 0.3-0.07 0.42-0.03c0.07 0.03 0.8 0.02 0.69-0.1c0.18 0.09 0.1 0.91-0.05 1.03c-0.25 0.21-1.43 0.12-1.7-0.07c-0.44-0.32-0.36 0.34-0.57 0.43c-0.41 0.17-1.02-0.54-1.46-0.58c0.18 0 0-0.54 0-0.58c-0.17-0.21-1.24 0.02-1.52 0.06c-0.53 0.07-1.08 0.06-1.48 0.39c-0.28 0.23-0.29 0.61-0.58 0.79c-0.19 0.12-0.39 0.08-0.55 0.23c-0.28 0.27-0.61 0.67-0.77 1.02c-0.07 0.15 0.08 0.5 0.05 0.7c-0.37 1.17 0.09 2.8 1.51 2.98c0.35 0.04 0.7 0.23 1.05 0.13c0.28-0.08 0.52-0.27 0.82-0.29c0.42-0.03 0.24 0.58 0.81 0.42c0.28-0.08 0.4 0.19 0.4 0.4c-0.09 0.43-0.29 0.67 0.1 0.97c0.27 0.21 0.49 0.5 0.54 0.86c0.03 0.2 0.21 0.55-0.02 0.66c-0.16 0.08-0.29 0.56-0.28 0.71c0.03 0.18 0.4 0.53 0.51 0.68c0.16 0.22 0.04 0.48 0.18 0.73c0.13 0.26 0.26 0.45 0.36 0.71c0.12 0.36 1.05-0.01 1.27-0.01c0.74 0 1.12-1.04 1.64-1.36c0.29-0.18 0.21-0.68 0.56-0.93c0.33-0.24 0.67-0.38 0.7-0.82c0.02-0.38-0.29-1.17-0.11-1.49c0.21-0.38 2.39-3.46 1.74-3.62l-0.92 0.44c-0.18 0.02-0.87-0.73-1.04-0.91c-0.34-0.33-0.48-0.93-0.76-1.34c-0.16-0.24-0.65-0.71-0.65-1.01c0.02 0.05 0.22 0.4 0.32 0.32l0.02-0.17c-0.01 0.09 0.57 0.75 0.69 0.82c0.28 0.16 0.28 0.61 0.55 0.82c0.53 0.41 0.38 1.56 1.16 0.86c0.52-0.47 1.54-1.36 1.26-2.17c-0.14-0.43-0.8-0.12-1 0.04c-0.21-0.11-1.01-0.97-0.69-1.09c0.15-0.05 0.49 0.4 0.61 0.46c0.25 0.14 0.47-0.24 0.58-0.01c0.16 0.35 1.26-0.36 1.52-0.26c0.08 0.03 0.15 0.08 0.21 0.14zm-8.8-0.3c0.01 0 0.01 0 0.02 0c-0.01 0-0.01 0-0.02 0zm2.68-0.68c0 0 0.01 0 0.01 0c0 0-0.01 0-0.01 0zm-4.57-1.86c0 0 0 0 0 0c0 0 0 0 0 0zm-0.42-0.89l-0.09 0.11c-0.09 0.09 0 0.14 0.09 0.1c0.13-0.06 0.29-0.05 0.31-0.22c0.01-0.15 0.04-0.05 0.08-0.1c0.04-0.05-0.07-0.14-0.11-0.15c-0.06-0.01-0.11 0.07-0.15 0.1l-0.07 0.02l-0.07 0.09l0.01 0.05zm0.44 0.2c-0.05 0.07 0.26 0.08 0.27 0.09c0.01 0.03-0.38 0.09-0.31 0.17c0.1 0.14 0.83-0.2 0.71-0.18c0.23-0.11 0.03-0.13-0.1-0.19c-0.04-0.22-0.08-0.55-0.21-0.69l0.09-0.1c-0.21-0.3-0.36 0.37-0.36 0.37l0.11-0.03c0.06 0.05-0.07 0.09-0.05 0.14c0.09 0.16 0.02 0.25 0.01 0.33c-0.01 0.09-0.1 0.05-0.15 0.09zm1.1-3.56c-0.72 0-1.43 0.08-2.1 0.23c-0.19 0.23-1.32 0.82-1.19 0.81c-0.36 0.05-0.43 0.69-0.36 0.69c0.18-0.01 1.3-0.85 1.83-0.67c0.51 0.18 1.43-0.41 1.79-0.71l0.36-0.33l-0.33-0.02zm-3.29 1.03c0 0 0 0 0 0c0 0 0 0 0 0zm-1.47 0.17c-0.86 0.47-1.64 1.06-2.33 1.75c0.25-0.08 0.57-0.12 0.64-0.24c0.57-0.85 0.6-0.19 1.11-0.41c0.17 0 0.37-0.7 0.55-0.81c0.3-0.2 0.1-0.21 0.03-0.29zm-2.72 15.4c-0.07-0.23-0.06-0.49 0.17-0.63l0.37-0.09c0.28-0.24-0.27-1.22-0.05-1.38c0.68-0.49 0.36-1.08-0.06-1.57c-0.18-0.21-1.15-1.21-1.26-1.03c0.08-0.27-0.18-0.94-0.33-1.2c-0.26-0.44-0.61-0.71-0.75-1.19c-0.06-0.19-0.06-0.78-0.17-0.91l-0.29-0.19c-0.08 0.52-0.14 1.04-0.14 1.59c0 2.54 0.96 4.85 2.52 6.61zm11.83-12.43c0.08-0.01-0.11 0.17-0.11 0.17c0.03 0.26 0.22 0.4 0.58 0.53c0.44 0.16 0.04 0.46-0.21 0.38c-0.14-0.04-0.85-0.25-0.88 0.03c0 0.17-0.68 0-0.57-0.17c0.07-0.12 0.05-0.39 0.19-0.56c0.19-0.25 0.38-0.12 0.39 0.03c0 0.39 0.4-0.37 0.62-0.4z" />
</svg>