<svg version="1.2" baseProfile="tiny-ps" xmlns="http://www.w3.org/2000/svg" viewBox="0 0 24 24" width="24" height="24">
	<title>bubble-bumoney-svg</title>
	<style>
		tspan { white-space:pre }
		.s0 { fill: #564322 } 
	</style>
	<path id="Layer" fill-rule="evenodd" class="s0" d="m23.96 11.22c-5.43 4.22-12.65-0.04-17.95 4.45l-3.77-8.22c4.94-4.77 11.77-0.45 17.95-4.45l3.77 8.22zm-2.8-1.85l-1.32-2.84c-0.6-0.12-1.21-0.38-1.73-0.72c-4.55 1.56-8.8 0.17-12.2 1.4c-0.15 0.77-0.49 1.57-0.92 2.09l1.13 2.49c0.69-0.02 1.52 0.2 2.19 0.56c4.13-1.44 8.43-0.15 12.02-1.24c0.17-0.62 0.44-1.22 0.82-1.74zm-6.06-0.57c0.45 1.04-0.03 2.04-1.07 2.29c-1.17 0.29-2.6-0.45-3.09-1.6c-0.47-1.1 0.08-2.14 1.23-2.33c1.15-0.19 2.46 0.54 2.93 1.64zm-1.09 0.59c-0.21-0.47-0.76-0.51-1.21-0.61c-0.27-0.07-0.37-0.36-0.06-0.45l0.06-0.02c0.16-0.03 0.34-0.01 0.51 0.01l-0.09-0.38c-0.22-0.02-0.4-0.01-0.56 0.02l-0.1-0.23l-0.22 0.04l0.11 0.24c-0.39 0.14-0.49 0.46-0.36 0.77c0.24 0.54 0.89 0.5 1.13 0.55c0.33 0.07 0.4 0.34 0.18 0.45l-0.13 0.04c-0.18 0.04-0.43 0.01-0.62-0.02l0.06 0.39c0.24 0.06 0.49 0.07 0.72 0.03l0.1 0.22l0.22-0.04l-0.1-0.23c0.33-0.13 0.53-0.39 0.36-0.77zm-9.51 11.61l-4.5-9.97l1.4-1.46l3.81 8.41l0 0.01c7.45-5.59 11.2-1.18 18.11-4.56c0.29 0.65 0.57 1.33 0.68 1.59c-6.86 3.94-12.4-1.42-19.5 5.99z" />
</svg>