<svg version="1.2" baseProfile="tiny-ps" xmlns="http://www.w3.org/2000/svg" viewBox="0 0 24 24" width="24" height="24">
	<title>icon-excursion-svg</title>
	<style>
		tspan { white-space:pre }
		.s0 { fill: #564322 } 
	</style>
	<path id="Layer" fill-rule="evenodd" class="s0" d="m24 12c0 6.63-5.37 12-12 12c-6.63 0-12-5.37-12-12c0-6.63 5.37-12 12-12c6.63 0 12 5.37 12 12zm-22 0c0 5.51 4.49 10 10 10c5.51 0 10-4.49 10-10c0-5.51-4.49-10-10-10c-5.51 0-10 4.49-10 10zm16 2.43c-1.13 1.72-3.2 3.57-6 3.57c-2.8 0-4.87-1.85-6-3.57l0.49-0.49c1.51 1.2 3.17 1.93 5.51 1.93c2.33 0 3.99-0.74 5.51-1.93l0.49 0.49zm-8-4.93c0 0.83-0.67 1.5-1.5 1.5c-0.83 0-1.5-0.67-1.5-1.5c0-0.83 0.67-1.5 1.5-1.5c0.83 0 1.5 0.67 1.5 1.5zm5.5-1.5c0.83 0 1.5 0.67 1.5 1.5c0 0.83-0.67 1.5-1.5 1.5c-0.83 0-1.5-0.67-1.5-1.5c0-0.83 0.67-1.5 1.5-1.5z" />
</svg>