<svg version="1.2" baseProfile="tiny-ps" xmlns="http://www.w3.org/2000/svg" viewBox="0 0 24 24" width="24" height="24">
	<title>icon-bus-svg</title>
	<style>
		tspan { white-space:pre }
		.s0 { fill: #564322 } 
	</style>
	<path id="Layer" fill-rule="evenodd" class="s0" d="m6 24h-2c-0.55 0-1-0.45-1-1v-1c-0.53 0-1.04-0.21-1.41-0.59c-0.38-0.38-0.59-0.88-0.59-1.41v-8c-0.55 0-1-0.45-1-1v-3c0-0.55 0.45-1 1-1v-4c0-1.66 1.34-3 3-3h16c1.66 0 3 1.34 3 3v4c0.55 0 1 0.45 1 1v3c0 0.55-0.45 1-1 1v8c0 0.53-0.21 1.04-0.59 1.41c-0.38 0.38-0.88 0.59-1.41 0.59v1c0 0.55-0.45 1-1 1h-2c-0.55 0-1-0.45-1-1v-1h-10v1c0 0.55-0.45 1-1 1zm-3-5.5c0 0.83 0.67 1.5 1.5 1.5c0.83 0 1.5-0.67 1.5-1.5c0-0.83-0.67-1.5-1.5-1.5c-0.83 0-1.5 0.67-1.5 1.5zm15 0c0 0.83 0.67 1.5 1.5 1.5c0.83 0 1.5-0.67 1.5-1.5c0-0.83-0.67-1.5-1.5-1.5c-0.83 0-1.5 0.67-1.5 1.5zm-3.5-0.5h-5c-0.28 0-0.5 0.22-0.5 0.5c0 0.28 0.22 0.5 0.5 0.5h5c0.28 0 0.5-0.22 0.5-0.5c0-0.28-0.22-0.5-0.5-0.5zm6.5-12.5c0-0.28-0.22-0.5-0.5-0.5h-17c-0.28 0-0.5 0.22-0.5 0.5v8.5c0 0 3.1 1 9 1c5.9 0 9-1 9-1v-8.5zm-5-3.5h-8v1h8v-1z" />
</svg>