<svg version="1.2" baseProfile="tiny-ps" xmlns="http://www.w3.org/2000/svg" viewBox="0 0 500 500" width="500" height="500">
	<title>logo-svg</title>
	<style>
		tspan { white-space:pre }
		.s0 { fill: #564322 } 
	</style>
	<g id="Layer">
		<path id="Layer" class="s0" d="m297.7 62.4c1.7 0.3 13.6 5.4 26.3 11.5c12.8 6.1 23.7 11.1 24.4 11.1c0.7 0 5.7-3.1 11-7c5.4-3.8 12.1-7.7 14.8-8.6c4.5-1.5 5.1-1.5 7.3 0c4.9 3.2 2.9 9.5-7.4 24.1c-3.2 4.4-6 8.5-6.4 9.2c-0.4 0.6 4.4 11.9 10.8 25.4c12.7 26.8 13.6 30.3 9.1 35.2c-3.2 3.4-6.7 4.2-10.3 2.3c-1.6-0.8-8.5-8.3-15.4-16.7c-6.8-8.4-14-17.1-16-19.2l-3.6-4l-15.2 13.8c-12.1 11-15.2 14.3-14.8 15.9c0.3 1.2 1.5 5.9 2.7 10.6c2.6 9.8 1.9 14-2.2 14c-3.1-0.1-4.8-1.5-10.9-9.1c-4.8-6-5.4-6.4-9.3-6.4h-4.1v-4.2c0-3.9-0.3-4.4-7.1-9.8c-8-6.3-10.4-9.7-8.8-12.3c2-3.2 8.6-2.8 21.6 1.2l4.8 1.5l14-15.5l14-15.4l-3.2-2.8c-1.8-1.6-10.6-8.8-19.6-16.1c-8.9-7.3-16.7-14.1-17.2-15.1c-2.5-4.7-0.6-10.4 4.3-12.6c1.8-0.8 4.6-1.2 6.4-1z" />
		<path id="Layer" class="s0" d="m164 77.2c62.8 0.3 60.8 0.1 65 7.1c2 3.1 2 6.1 2 136.8c0 137.6-0.2 147.3-4.1 163.9c-8.6 37.2-31.7 60.5-68.9 69.7c-18.8 4.6-56.6 5.6-76 1.8c-32.8-6.2-57.2-23-70.4-48.5c-6-11.6-8.6-21.1-9.2-34.5c-1-20.1 1.3-22.5 21.9-22.7c19.6-0.1 23.9 2.5 25.1 14.9c1.9 19.2 6.9 30.8 17.8 41.7c8.4 8.3 13.8 11.6 26.3 15.9c8.3 2.8 10 3.1 22.5 3.1c11.9 0 14.4-0.3 21.5-2.7c19.9-6.6 33.6-19.8 40.2-38.8c5.3-15.4 5.3-14.4 5.3-150.7v-126.2h-38.5c-33.3 0-38.9-0.2-41-1.6c-5.5-3.6-7.4-17.3-3.2-23.5c1.2-1.8 3.4-3.9 4.7-4.6c2-1 15-1.2 59-1.1z" />
		<path id="Layer" fill-rule="evenodd" class="s0" d="m419.3 209.6c37.4 8.2 68 36.8 77 72.2c2.1 8.3 2.2 10.6 2.2 50.7c0 47.9-0.3 49.9-8.9 68c-5.7 12.1-11.1 19.9-19.9 28.8c-15 15.2-28.8 23.1-48.7 27.8c-7 1.7-11.8 2-27.5 2c-17 0-20-0.3-29-2.6c-22.6-5.7-41.7-18.8-56.7-39c-9.1-12.1-14.2-23.3-17.2-37.9c-2.2-10.9-2.4-82.9-0.1-93.4c7.6-36.3 38.6-67.8 75-76.2c10.9-2.5 43.2-2.7 53.8-0.4zm-33.5 30.9c-17.8 4.9-33.7 18.1-42.8 35.6c-6.8 13.1-7.2 16-6.8 59.8c0.3 36.6 0.5 38.9 2.6 45.1c5.7 17.1 19.7 33.7 34.4 40.9c15.4 7.6 25.4 7.7 40.8 0.4c5.8-2.8 9.3-5.5 16-12.2c9.6-9.7 14.8-17.9 18.8-29.6l2.7-8v-39c0-35-0.2-39.6-1.8-45c-6.9-22.3-24.9-40.9-46.1-47.4c-7.7-2.4-11-2.5-17.8-0.6z" />
	</g>
</svg>