<?xml version="1.0" standalone="no"?>
<!DOCTYPE svg PUBLIC "-//W3C//DTD SVG 20010904//EN"
 "http://www.w3.org/TR/2001/REC-SVG-20010904/DTD/svg10.dtd">
<svg version="1.0" xmlns="http://www.w3.org/2000/svg"
 width="500.000000pt" height="500.000000pt" viewBox="0 0 500.000000 500.000000"
 preserveAspectRatio="xMidYMid meet">

<g transform="translate(0.000000,500.000000) scale(0.100000,-0.100000)"
fill="#000000" stroke="none">
<path d="M2913 4366 c-49 -22 -68 -79 -43 -126 5 -10 83 -78 172 -151 90 -73
178 -145 196 -161 l32 -28 -140 -154 -140 -155 -48 15 c-130 40 -196 44 -216
12 -16 -26 8 -60 88 -123 68 -54 71 -59 71 -98 l0 -42 41 0 c39 0 45 -4 93
-64 61 -76 78 -90 109 -91 41 0 48 42 22 140 -12 47 -24 94 -27 106 -4 16 27
49 148 159 l152 138 36 -40 c20 -21 92 -108 160 -192 69 -84 138 -159 154
-167 36 -19 71 -11 103 23 45 49 36 84 -91 352 -64 135 -112 248 -108 254 4 7
32 48 64 92 103 146 123 209 74 241 -22 15 -28 15 -73 0 -27 -9 -94 -48 -148
-86 -53 -39 -103 -70 -110 -70 -7 0 -116 50 -244 111 -127 61 -246 112 -263
115 -18 2 -46 -2 -64 -10z"/>
<path d="M1050 4217 c-13 -7 -35 -28 -47 -46 -42 -62 -23 -199 32 -235 21 -14
77 -16 410 -16 l385 0 0 -1262 c0 -1363 0 -1353 -53 -1507 -66 -190 -203 -322
-402 -388 -71 -24 -96 -27 -215 -27 -125 0 -142 3 -225 31 -125 43 -179 76
-263 159 -109 109 -159 225 -178 417 -12 124 -55 150 -251 149 -206 -2 -229
-26 -219 -227 6 -134 32 -229 92 -345 132 -255 376 -423 704 -485 194 -38 572
-28 760 18 372 92 603 325 689 697 39 166 41 263 41 1639 0 1307 0 1337 -20
1368 -42 70 -22 68 -650 71 -440 1 -570 -1 -590 -11z"/>
<path d="M3655 2900 c-364 -84 -674 -399 -750 -762 -23 -105 -21 -825 1 -934
30 -146 81 -258 172 -379 150 -202 341 -333 567 -390 90 -23 120 -26 290 -26
157 0 205 3 275 20 199 47 337 126 487 278 88 89 142 167 199 288 86 181 89
201 89 680 0 401 -1 424 -22 507 -90 354 -396 640 -770 722 -106 23 -429 21
-538 -4z m381 -311 c212 -65 392 -251 461 -474 16 -54 18 -100 18 -450 l0
-390 -27 -80 c-40 -117 -92 -199 -188 -296 -67 -67 -102 -94 -160 -122 -154
-73 -254 -72 -408 4 -147 72 -287 238 -344 409 -21 62 -23 85 -26 451 -4 438
0 467 68 598 91 175 250 307 428 356 68 19 101 18 178 -6z"/>
</g>
</svg>
