<svg version="1.2" baseProfile="tiny-ps" xmlns="http://www.w3.org/2000/svg" viewBox="0 0 24 24" width="24" height="24">
	<title>pointer-svg</title>
	<style>
		tspan { white-space:pre }
		.s0 { fill: #564322 } 
	</style>
	<path id="Layer" fill-rule="evenodd" class="s0" d="m18.54 7.55c2.4 0.51 3.46 2.22 3.46 4.67c0 4-3 4.88-3 10.03v1.75h-9.92c-0.37-4.41-2.09-5.56-6.06-9.53c-0.66-0.66-1.02-1.47-1.02-2.27c0-1.56 1.34-2.76 3.16-2.5c0.65 0.09 1.28 0.38 1.84 0.71v-7.46c0-1.63 1.35-2.96 3-2.96c1.65 0 3 1.33 3 2.96v3.51c0.93 0.18 4.35 0.84 5.54 1.09zm0.36 8.02c0.64-1.16 1.11-2 1.11-3.35c0-1.54-0.52-2.17-1.17-2.48c-0.47-0.22-1.02 0.12-1.02 0.65v0.91c0 0.31-0.26 0.57-0.57 0.57c-0.32 0-0.57-0.26-0.57-0.57v-1.53c0-0.4-0.29-0.75-0.68-0.83c-0.52-0.1-1.01 0.3-1.01 0.83v0.83c0 0.31-0.26 0.57-0.57 0.57c-0.31 0-0.57-0.26-0.57-0.57v-1.27c0-0.4-0.29-0.75-0.69-0.83c-0.52-0.11-1.01 0.3-1.01 0.83v0.57c0 0.31-0.26 0.57-0.57 0.57c-0.32 0-0.57-0.26-0.57-0.57v-6.95c0-0.52-0.46-0.96-1-0.96c-0.54 0-1 0.44-1 0.96v11.93c-1.06-1.32-2.86-3.21-4.12-3.21c-0.83 0-1.13 0.69-0.44 1.37c2.63 2.63 5.71 5.13 6.44 8.95h6.13c0.05-3.1 1.07-4.94 1.89-6.42z" />
</svg>