<?xml version="1.0" standalone="no"?>
<!DOCTYPE svg PUBLIC "-//W3C//DTD SVG 20010904//EN"
 "http://www.w3.org/TR/2001/REC-SVG-20010904/DTD/svg10.dtd">
<svg version="1.0" xmlns="http://www.w3.org/2000/svg"
 width="150.000000pt" height="120.000000pt" viewBox="0 0 150.000000 120.000000"
 preserveAspectRatio="xMidYMid meet">

<g transform="translate(0.000000,120.000000) scale(0.100000,-0.100000)"
fill="#000000" stroke="none">
<path d="M805 1189 c-49 -6 -91 -12 -94 -15 -13 -13 19 -15 115 -5 209 21 387
10 463 -28 52 -27 128 -112 159 -179 22 -47 27 -71 27 -138 0 -74 -3 -87 -42
-165 -50 -100 -122 -185 -189 -221 -27 -14 -220 -80 -429 -147 -209 -66 -468
-150 -575 -186 -107 -36 -198 -65 -203 -65 -15 0 4 21 44 45 40 26 76 71 65
82 -3 4 -13 -3 -22 -15 -8 -12 -40 -40 -70 -63 -54 -39 -61 -52 -45 -77 6 -11
38 -12 155 -6 80 4 144 10 140 13 -3 3 -51 8 -107 11 l-102 5 325 107 c179 59
438 143 575 187 291 94 326 115 414 246 130 194 118 371 -35 522 -84 83 -121
94 -324 98 -85 2 -195 -1 -245 -6z"/>
</g>
</svg>
