<?xml version="1.0" standalone="no"?>
<!DOCTYPE svg PUBLIC "-//W3C//DTD SVG 20010904//EN"
 "http://www.w3.org/TR/2001/REC-SVG-20010904/DTD/svg10.dtd">
<svg version="1.0" xmlns="http://www.w3.org/2000/svg"
 width="311.000000pt" height="252.000000pt" viewBox="0 0 311.000000 252.000000"
 preserveAspectRatio="xMidYMid meet">

<g transform="translate(0.000000,252.000000) scale(0.100000,-0.100000)"
fill="#000000" stroke="none">
<path d="M355 2510 c-3 -6 -16 -7 -29 -4 -18 4 -34 -5 -71 -40 -47 -43 -48
-46 -31 -64 19 -22 28 -18 -94 -38 -19 -4 -42 -14 -51 -23 -10 -9 -31 -29 -48
-44 -38 -35 -39 -50 -4 -100 20 -29 26 -49 24 -78 -3 -40 6 -48 27 -27 13 13
16 3 13 -34 -2 -11 5 -18 15 -18 16 0 16 -1 1 -18 -20 -22 -22 -42 -5 -42 9 0
9 -3 0 -12 -14 -14 -16 -94 -2 -103 5 -3 26 10 47 30 21 19 44 33 52 30 7 -3
20 0 27 6 21 17 33 2 27 -34 -7 -47 15 -64 56 -43 35 19 71 21 71 5 0 -6 9 -9
20 -6 11 3 22 1 25 -3 8 -12 44 0 58 20 14 19 84 34 93 19 3 -5 13 -8 22 -7
11 2 16 -3 14 -12 -2 -8 -1 -29 3 -47 5 -29 8 -32 34 -27 37 8 45 -18 19 -62
-20 -34 -111 -130 -129 -136 -8 -3 -6 -15 5 -42 10 -24 16 -67 16 -113 0 -65
-3 -77 -22 -93 -21 -17 -21 -19 -6 -57 14 -38 14 -42 -6 -84 -20 -41 -24 -44
-69 -51 -27 -4 -52 -9 -55 -12 -3 -4 7 -19 21 -34 18 -18 27 -39 27 -60 0 -24
8 -38 35 -59 45 -36 45 -65 0 -114 -28 -32 -35 -47 -35 -81 0 -42 41 -128 60
-128 19 0 10 -17 -14 -28 -15 -7 -36 -36 -56 -78 -29 -59 -32 -74 -27 -124 9
-86 11 -88 67 -82 47 4 51 3 109 -48 48 -41 61 -59 61 -81 0 -18 7 -32 20 -39
11 -6 20 -20 20 -31 0 -11 10 -38 23 -60 17 -32 35 -47 86 -70 l64 -29 25 22
c13 13 35 44 48 69 25 50 38 59 89 59 26 0 39 8 62 36 l29 36 94 -1 c134 -2
132 -2 165 4 17 4 49 0 72 -8 40 -14 43 -13 64 9 26 28 48 30 89 9 29 -15 30
-15 59 26 17 22 38 62 47 87 10 27 35 64 58 86 34 32 51 40 96 45 66 8 101 26
94 46 -9 22 25 144 52 186 13 21 48 56 78 78 30 22 62 51 70 63 15 21 14 23
-19 51 -54 44 -78 99 -73 167 4 63 25 107 103 225 29 44 61 97 71 118 10 20
20 37 23 37 3 0 20 11 36 24 28 23 29 25 12 38 -18 13 -17 15 3 41 26 33 92
68 182 95 85 27 123 46 142 74 8 12 36 33 60 47 88 51 156 102 156 119 0 9 -5
33 -10 52 -9 30 -7 37 10 50 20 15 20 15 -3 43 -29 37 -98 49 -127 22 -17 -15
-24 -16 -69 -4 -38 9 -53 10 -64 1 -17 -15 -31 -3 -16 14 8 10 -2 13 -52 12
l-62 -1 -11 34 c-8 24 -18 35 -35 37 -13 2 -26 12 -28 23 -3 11 -14 19 -27 19
-11 0 -38 3 -58 6 -31 5 -38 3 -38 -9 0 -25 -19 -31 -87 -29 -47 2 -71 8 -93
23 -20 16 -38 20 -65 17 -30 -3 -40 0 -59 22 -20 24 -104 60 -141 60 -9 0 -16
7 -14 18 4 42 -1 52 -26 52 -14 0 -36 7 -49 15 -19 13 -35 14 -82 7 -53 -9
-63 -7 -112 17 -51 25 -54 25 -83 9 -28 -17 -31 -16 -89 9 -38 16 -66 23 -77
18 -10 -5 -25 -7 -33 -6 -9 1 -35 -5 -59 -14 -55 -19 -131 -19 -157 0 -10 8
-35 15 -54 15 -19 0 -46 7 -60 15 -14 8 -42 14 -62 15 -23 0 -40 6 -46 15 -7
14 -13 14 -43 2 -21 -9 -82 -15 -159 -16 -123 -3 -125 -2 -149 23 -14 14 -35
26 -47 26 -13 0 -26 5 -29 10 -8 13 -22 13 -30 0z m50 -30 c12 0 32 -11 45
-25 13 -14 32 -25 42 -25 10 0 18 -5 18 -11 0 -8 4 -8 13 -1 7 6 60 12 117 13
58 1 115 7 128 12 16 8 26 7 34 -1 7 -7 31 -12 54 -12 25 0 49 -6 58 -15 8 -8
30 -15 49 -15 19 0 48 -7 63 -15 37 -19 120 -19 173 0 36 12 41 12 41 -1 0
-11 6 -10 29 7 l29 21 56 -26 c30 -14 60 -36 66 -47 9 -16 14 -18 26 -8 11 9
11 15 3 25 -9 10 -5 16 14 25 22 10 32 8 70 -14 42 -25 48 -26 106 -16 51 8
66 7 84 -6 12 -8 29 -15 39 -15 14 0 18 -8 18 -35 0 -30 3 -35 23 -35 47 0
118 -30 143 -60 23 -27 31 -30 61 -24 26 5 41 2 62 -14 18 -13 46 -21 82 -22
102 -5 120 -2 126 20 5 18 11 19 42 14 20 -4 41 -13 46 -20 6 -7 22 -18 38
-23 19 -8 27 -17 27 -35 0 -31 25 -46 64 -39 19 4 33 1 40 -9 15 -20 38 -27
58 -17 10 5 37 4 67 -3 44 -10 53 -9 69 5 25 23 68 21 93 -4 19 -19 20 -21 3
-33 -16 -12 -16 -18 -4 -60 7 -26 11 -48 9 -50 -21 -19 -104 -78 -128 -91 -17
-8 -53 -35 -81 -60 -42 -37 -99 -65 -134 -65 -18 0 -151 -64 -173 -83 -30 -27
-50 -76 -34 -86 9 -6 5 -13 -13 -25 -14 -9 -33 -31 -42 -49 -9 -17 -46 -76
-81 -129 -36 -54 -73 -120 -84 -148 -37 -97 -16 -199 52 -253 l34 -27 -40 -36
c-22 -19 -58 -52 -81 -72 -39 -36 -41 -37 -55 -18 -10 12 -22 17 -32 13 -26
-10 -32 -36 -13 -55 13 -14 20 -14 36 -4 19 11 19 11 6 -21 -16 -37 -36 -119
-36 -146 0 -21 -26 -31 -83 -31 -32 0 -47 -8 -90 -49 -29 -28 -59 -67 -66 -88
-8 -21 -25 -55 -38 -76 -20 -32 -28 -38 -46 -32 -57 18 -78 17 -101 -4 -21
-19 -26 -20 -79 -9 -42 9 -63 9 -75 1 -11 -7 -36 -8 -67 -3 -28 5 -80 6 -117
3 -62 -5 -70 -9 -93 -39 -19 -25 -34 -34 -55 -34 -53 0 -78 -17 -106 -72 -39
-78 -48 -81 -114 -48 -59 30 -97 82 -86 117 5 15 0 23 -20 32 -21 9 -25 16
-20 35 5 20 -6 33 -65 85 -65 57 -74 61 -119 61 l-49 0 -7 57 c-6 48 -3 64 15
98 11 22 21 44 21 49 0 17 33 46 52 46 10 0 18 6 18 14 0 8 3 21 6 30 4 11 0
16 -15 16 -24 0 -61 64 -61 105 0 32 21 73 49 99 14 13 21 31 21 55 -1 29 -7
40 -33 56 -24 15 -33 30 -38 58 -3 21 -11 43 -18 50 -19 19 -12 27 22 27 39 0
58 18 81 73 14 35 14 42 0 75 -14 34 -14 38 2 49 10 7 20 13 23 13 10 0 1 173
-10 201 -9 24 -5 31 46 85 68 72 95 120 88 157 -5 23 -10 27 -39 27 -32 0 -33
1 -31 40 1 21 -2 42 -5 45 -4 4 -39 8 -78 9 -67 3 -72 1 -80 -20 -7 -18 -16
-22 -44 -21 -20 1 -36 5 -36 10 0 12 -54 8 -83 -8 -25 -13 -29 -13 -34 2 -3 8
-1 25 6 35 11 17 9 23 -9 40 -20 18 -23 19 -39 4 -10 -9 -25 -14 -33 -11 -10
4 -30 -6 -52 -25 l-36 -32 0 30 c0 17 10 40 25 56 26 28 32 46 15 46 -7 0 -7
6 0 19 11 21 -2 37 -20 26 -6 -4 -10 5 -10 19 0 14 5 26 10 26 6 0 10 7 10 15
0 20 -29 19 -52 -2 -25 -22 -23 2 2 27 11 11 20 27 20 37 0 15 -1 15 -18 0
-16 -15 -20 -14 -46 19 -24 31 -27 39 -17 60 6 13 15 24 19 24 5 0 20 11 33
24 26 25 67 37 139 40 52 2 65 24 28 51 -21 15 -22 17 -5 26 9 6 29 22 42 37
22 23 27 25 35 12 8 -13 11 -13 27 2 11 12 20 15 27 8 6 -6 20 -10 31 -10z
m1555 -1755 c0 -8 -7 -15 -15 -15 -8 0 -15 7 -15 15 0 8 7 15 15 15 8 0 15 -7
15 -15z"/>
<path d="M1410 2296 c-27 -33 18 -72 48 -42 13 13 14 20 6 34 -15 23 -38 26
-54 8z m40 -21 c0 -8 -7 -15 -15 -15 -8 0 -15 7 -15 15 0 8 7 15 15 15 8 0 15
-7 15 -15z"/>
<path d="M1570 2288 c0 -13 -3 -34 -7 -48 -3 -14 -3 -22 1 -18 13 11 24 78 15
84 -5 3 -9 -5 -9 -18z"/>
<path d="M1657 2281 c-4 -18 -7 -40 -7 -47 0 -19 36 -18 44 2 9 23 7 44 -3 44
-5 0 -7 -8 -4 -19 3 -10 0 -22 -7 -26 -16 -10 -25 2 -13 17 5 7 7 24 3 38 -6
24 -7 24 -13 -9z"/>
<path d="M1504 2265 c-9 -20 -14 -38 -11 -42 4 -3 9 2 13 11 8 21 24 21 25 -1
0 -16 1 -16 8 1 9 23 2 66 -10 66 -4 0 -16 -16 -25 -35z"/>
<path d="M1602 2268 c-19 -19 -15 -48 7 -48 20 0 37 32 26 50 -8 13 -18 13
-33 -2z m18 -23 c-7 -9 -15 -13 -18 -10 -3 2 1 11 8 20 7 9 15 13 18 10 3 -2
-1 -11 -8 -20z"/>
<path d="M1722 2268 c-19 -19 -15 -47 8 -45 12 1 20 8 20 19 0 10 0 21 1 25 1
13 -16 14 -29 1z m14 -24 c-4 -9 -9 -15 -11 -12 -3 3 -3 13 1 22 4 9 9 15 11
12 3 -3 3 -13 -1 -22z"/>
<path d="M770 2146 c-27 -33 18 -72 48 -42 13 13 14 20 6 34 -15 23 -38 26
-54 8z m40 -21 c0 -8 -7 -15 -15 -15 -8 0 -15 7 -15 15 0 8 7 15 15 15 8 0 15
-7 15 -15z"/>
<path d="M861 2109 c-15 -45 -14 -49 14 -49 14 0 25 4 25 9 0 5 -9 7 -20 4
-18 -5 -19 -3 -9 26 6 18 9 34 6 37 -2 3 -10 -9 -16 -27z"/>
<path d="M920 2105 c-16 -19 -6 -45 17 -44 16 0 16 1 -1 8 -19 7 -19 8 3 14
13 3 21 11 19 18 -6 19 -24 21 -38 4z m30 -5 c0 -5 -5 -10 -11 -10 -5 0 -7 5
-4 10 3 6 8 10 11 10 2 0 4 -4 4 -10z"/>
<path d="M976 2104 c-10 -26 -7 -44 9 -44 17 0 39 36 30 50 -9 15 -32 12 -39
-6z m15 -27 c-8 -8 -11 -7 -11 4 0 20 13 34 18 19 3 -7 -1 -17 -7 -23z"/>
<path d="M1030 2108 c0 -9 -3 -23 -6 -32 -3 -9 -2 -16 4 -16 15 0 23 30 12 48
-9 16 -9 16 -10 0z"/>
<path d="M1055 2110 c-3 -5 -2 -10 3 -10 6 0 8 -10 5 -22 -4 -19 -3 -20 6 -8
6 8 11 23 11 33 0 19 -15 23 -25 7z"/>
<path d="M1036 1761 c-4 -24 -5 -46 -2 -48 7 -7 19 63 14 79 -3 7 -8 -7 -12
-31z"/>
<path d="M930 1780 c-12 -7 -12 -12 4 -28 17 -20 7 -40 -14 -27 -5 3 -10 1
-10 -4 0 -17 40 -13 47 5 3 8 1 20 -6 27 -16 16 -14 25 7 30 12 3 13 5 2 6 -8
0 -22 -3 -30 -9z"/>
<path d="M2540 1766 c-27 -33 18 -72 48 -42 13 13 14 20 6 34 -15 23 -38 26
-54 8z m40 -21 c0 -8 -7 -15 -15 -15 -8 0 -15 7 -15 15 0 8 7 15 15 15 8 0 15
-7 15 -15z"/>
<path d="M982 1758 c-19 -19 -15 -48 7 -48 20 0 37 32 26 50 -8 13 -18 13 -33
-2z m18 -23 c-7 -9 -15 -13 -18 -10 -3 2 1 11 8 20 7 9 15 13 18 10 3 -2 -1
-11 -8 -20z"/>
<path d="M1072 1758 c-19 -19 -15 -47 8 -45 12 1 20 8 20 19 0 10 0 21 1 25 1
13 -16 14 -29 1z m14 -24 c-4 -9 -9 -15 -11 -12 -3 3 -3 13 1 22 4 9 9 15 11
12 3 -3 3 -13 -1 -22z"/>
<path d="M1120 1758 c0 -9 -3 -23 -6 -32 -3 -9 -2 -16 4 -16 15 0 23 30 12 48
-9 16 -9 16 -10 0z"/>
<path d="M1143 1758 c-2 -5 0 -8 5 -8 6 0 8 -10 5 -22 -5 -23 -4 -23 17 2 l21
25 -6 -24 c-5 -16 -4 -21 4 -17 6 4 11 18 11 31 0 18 -5 23 -26 21 -14 0 -28
-4 -31 -8z"/>
<path d="M1222 1758 c-19 -19 -15 -47 8 -45 12 1 20 8 20 19 0 10 0 21 1 25 1
13 -16 14 -29 1z m14 -24 c-4 -9 -9 -15 -11 -12 -3 3 -3 13 1 22 4 9 9 15 11
12 3 -3 3 -13 -1 -22z"/>
<path d="M1270 1741 l0 -33 21 23 20 24 -7 -24 c-4 -16 -3 -21 5 -17 13 9 15
56 2 56 -6 0 -13 -5 -17 -11 -4 -8 -9 -7 -15 2 -6 10 -9 3 -9 -20z"/>
<path d="M1342 1758 c-18 -18 -15 -48 6 -47 10 0 12 3 5 6 -17 6 -16 18 3 37
8 9 12 16 7 16 -5 0 -14 -5 -21 -12z"/>
<path d="M1390 1750 c-13 -25 -6 -39 20 -37 15 1 20 9 20 29 0 33 -24 38 -40
8z m24 -14 c-6 -16 -24 -23 -24 -8 0 10 22 33 27 28 2 -2 1 -11 -3 -20z"/>
<path d="M830 1706 c-27 -33 18 -72 48 -42 13 13 14 20 6 34 -15 23 -38 26
-54 8z m40 -21 c0 -8 -7 -15 -15 -15 -8 0 -15 7 -15 15 0 8 7 15 15 15 8 0 15
-7 15 -15z"/>
<path d="M1260 1446 c-27 -33 18 -72 48 -42 13 13 14 20 6 34 -15 23 -38 26
-54 8z m40 -21 c0 -8 -7 -15 -15 -15 -8 0 -15 7 -15 15 0 8 7 15 15 15 8 0 15
-7 15 -15z"/>
<path d="M1520 1427 c0 -9 -7 -17 -15 -17 -17 0 -39 -36 -30 -50 3 -6 15 -10
25 -10 14 0 20 10 25 41 4 22 4 43 1 46 -3 4 -6 -1 -6 -10z m-19 -60 c-16 -16
-26 0 -10 19 9 11 15 12 17 4 2 -6 -1 -17 -7 -23z"/>
<path d="M1651 1430 c-1 -8 -11 -20 -23 -25 -13 -6 -24 -20 -26 -33 -3 -20 0
-23 19 -20 16 2 25 13 31 36 5 19 7 39 4 45 -2 7 -5 6 -5 -3z m-11 -39 c0 -5
-7 -14 -15 -21 -16 -14 -18 -10 -9 14 6 17 24 22 24 7z"/>
<path d="M1336 1408 c-3 -13 -6 -32 -6 -43 0 -15 5 -11 17 13 11 22 13 36 6
43 -7 7 -12 3 -17 -13z"/>
<path d="M1383 1408 c-26 -27 -31 -47 -8 -28 13 10 15 9 16 -11 l0 -24 10 25
c5 13 9 33 7 43 -3 17 -5 17 -25 -5z"/>
<path d="M1586 1413 c-2 -10 -8 -29 -11 -43 -5 -16 -4 -22 3 -15 5 6 12 25 15
43 7 34 2 44 -7 15z"/>
<path d="M1426 1391 c-21 -23 -14 -40 14 -38 15 1 20 9 20 29 0 33 -10 35 -34
9z m21 -16 c-4 -8 -11 -15 -17 -15 -7 0 -7 6 0 21 13 23 26 19 17 -6z"/>
<path d="M1537 1381 c-7 -36 -2 -37 15 -3 11 22 12 29 2 29 -7 0 -15 -12 -17
-26z"/>
<path d="M1980 1146 c-27 -33 18 -72 48 -42 13 13 14 20 6 34 -15 23 -38 26
-54 8z m40 -21 c0 -8 -7 -15 -15 -15 -8 0 -15 7 -15 15 0 8 7 15 15 15 8 0 15
-7 15 -15z"/>
<path d="M1067 633 c-15 -55 -18 -77 -8 -68 11 11 26 85 18 85 -3 0 -8 -8 -10
-17z"/>
<path d="M1097 633 c-15 -55 -18 -77 -8 -68 11 11 26 85 18 85 -3 0 -8 -8 -10
-17z"/>
<path d="M875 629 c-4 -5 1 -19 10 -29 18 -20 7 -34 -21 -23 -12 4 -15 3 -10
-5 9 -15 43 -16 51 -1 4 5 -1 19 -10 29 -15 17 -15 19 2 29 16 9 16 10 1 11
-9 0 -20 -5 -23 -11z"/>
<path d="M1036 623 c-2 -10 -8 -29 -11 -43 -5 -16 -4 -22 3 -15 5 6 12 25 15
43 7 34 2 44 -7 15z"/>
<path d="M926 603 c-12 -29 -6 -43 17 -42 21 0 21 1 2 9 -16 7 -17 9 -3 9 9 1
22 9 27 19 9 15 10 15 11 -5 0 -32 15 -36 29 -7 16 35 13 44 -4 14 -13 -23
-14 -24 -15 -4 0 16 -7 21 -29 22 -18 0 -32 -5 -35 -15z m29 -3 c3 -5 -1 -10
-10 -10 -9 0 -13 5 -10 10 3 6 8 10 10 10 2 0 7 -4 10 -10z"/>
<path d="M1122 608 c-19 -19 -15 -48 7 -48 20 0 37 32 26 50 -8 13 -18 13 -33
-2z m18 -23 c-7 -9 -15 -13 -18 -10 -3 2 1 11 8 20 7 9 15 13 18 10 3 -2 -1
-11 -8 -20z"/>
<path d="M800 546 c-27 -33 18 -72 48 -42 13 13 14 20 6 34 -15 23 -38 26 -54
8z m40 -21 c0 -8 -7 -15 -15 -15 -8 0 -15 7 -15 15 0 8 7 15 15 15 8 0 15 -7
15 -15z"/>
<path d="M1681 540 c-1 -8 -11 -20 -23 -25 -13 -6 -24 -20 -26 -33 -3 -20 0
-23 19 -20 16 2 25 13 31 36 5 19 7 39 4 45 -2 7 -5 6 -5 -3z m-11 -39 c0 -5
-7 -14 -15 -21 -16 -14 -18 -10 -9 14 6 17 24 22 24 7z"/>
<path d="M1360 518 c-11 -12 -20 -28 -20 -35 0 -14 40 -34 53 -26 14 8 7 43
-9 43 -8 0 -13 -4 -9 -9 3 -5 1 -12 -5 -16 -21 -13 -9 34 12 49 12 9 17 16 11
16 -7 0 -21 -10 -33 -22z"/>
<path d="M1417 491 c-7 -36 -2 -37 15 -3 11 22 12 29 2 29 -7 0 -15 -12 -17
-26z"/>
<path d="M1460 500 c-13 -25 -6 -39 20 -37 15 1 20 9 20 29 0 33 -24 38 -40 8z
m24 -14 c-6 -16 -24 -23 -24 -8 0 10 22 33 27 28 2 -2 1 -11 -3 -20z"/>
<path d="M1515 502 c-3 -7 -5 -21 -5 -30 0 -13 5 -11 21 8 20 24 21 25 16 2
-3 -12 -1 -20 4 -16 5 3 9 16 9 29 0 17 -5 23 -20 22 -11 -1 -22 -7 -25 -15z"/>
<path d="M1580 500 c-13 -25 -6 -39 20 -37 15 1 20 9 20 29 0 33 -24 38 -40 8z
m24 -14 c-6 -16 -24 -23 -24 -8 0 10 22 33 27 28 2 -2 1 -11 -3 -20z"/>
<path d="M1702 508 c-19 -19 -15 -47 8 -45 12 1 20 8 20 19 0 10 0 21 1 25 1
13 -16 14 -29 1z m14 -24 c-4 -9 -9 -15 -11 -12 -3 3 -3 13 1 22 4 9 9 15 11
12 3 -3 3 -13 -1 -22z"/>
<path d="M1290 446 c-27 -33 18 -72 48 -42 13 13 14 20 6 34 -15 23 -38 26
-54 8z m40 -21 c0 -8 -7 -15 -15 -15 -8 0 -15 7 -15 15 0 8 7 15 15 15 8 0 15
-7 15 -15z"/>
<path d="M2915 1680 c-4 -23 -5 -44 -2 -46 3 -3 8 13 12 36 4 23 5 44 2 46 -3
3 -8 -13 -12 -36z"/>
<path d="M2643 1698 c0 -7 -3 -26 -7 -41 -5 -22 -3 -27 11 -27 30 0 42 14 40
45 -2 22 -8 31 -23 33 -12 2 -21 -3 -21 -10z m37 -2 c0 -3 -4 -8 -10 -11 -5
-3 -10 -1 -10 4 0 6 5 11 10 11 6 0 10 -2 10 -4z m-12 -47 c-20 -13 -28 -11
-22 5 3 8 12 12 21 9 12 -5 12 -7 1 -14z"/>
<path d="M2712 1678 c-19 -19 -15 -48 7 -48 20 0 37 32 26 50 -8 13 -18 13
-33 -2z m18 -23 c-7 -9 -15 -13 -18 -10 -3 2 1 11 8 20 7 9 15 13 18 10 3 -2
-1 -11 -8 -20z"/>
<path d="M2762 1656 c-2 -16 -1 -28 1 -25 2 2 11 16 20 31 16 25 16 27 -1 25
-12 -1 -19 -10 -20 -31z"/>
<path d="M2812 1678 c-18 -18 -15 -48 6 -47 10 0 12 3 5 6 -17 6 -16 18 3 37
8 9 12 16 7 16 -5 0 -14 -5 -21 -12z"/>
<path d="M2860 1675 c-16 -19 -6 -45 17 -44 16 0 16 1 -1 8 -19 7 -19 8 3 14
13 3 21 11 19 18 -6 19 -24 21 -38 4z m30 -5 c0 -5 -4 -10 -10 -10 -5 0 -10 5
-10 10 0 6 5 10 10 10 6 0 10 -4 10 -10z"/>
<path d="M2947 1683 c-4 -3 -7 -17 -7 -30 0 -35 34 -26 38 10 3 26 -14 37 -31
20z m14 -36 c-8 -8 -11 -7 -11 4 0 20 13 34 18 19 3 -7 -1 -17 -7 -23z"/>
<path d="M2995 1672 c-3 -7 -5 -21 -5 -30 0 -13 5 -11 21 8 20 24 21 25 16 2
-3 -12 -1 -20 4 -16 5 3 9 16 9 29 0 17 -5 23 -20 22 -11 -1 -22 -7 -25 -15z"/>
<path d="M3060 1670 c-13 -25 -6 -39 20 -37 15 1 20 9 20 29 0 33 -24 38 -40
8z m24 -14 c-6 -16 -24 -23 -24 -8 0 10 22 33 27 28 2 -2 1 -11 -3 -20z"/>
<path d="M2967 1282 c-3 -4 -3 -19 0 -35 4 -22 11 -27 37 -27 17 -1 42 -7 56
-15 14 -8 28 -14 33 -15 13 0 7 35 -13 68 -17 28 -25 32 -64 32 -25 0 -47 -3
-49 -8z m102 -42 c15 -23 15 -24 -4 -16 -11 5 -32 11 -47 14 -16 2 -28 11 -28
19 0 24 60 12 79 -17z"/>
<path d="M2786 1245 c-41 -15 -73 -36 -104 -70 l-46 -48 28 -24 c26 -22 29
-23 41 -7 11 15 13 14 23 -14 7 -22 18 -32 31 -32 11 0 24 -7 29 -17 9 -15 12
-14 41 6 17 12 31 29 31 38 0 8 11 28 25 44 29 35 24 54 -16 68 -28 10 -30 13
-23 46 3 19 5 34 3 34 -2 -1 -31 -11 -63 -24z m36 -36 c3 -22 15 -32 52 -43
17 -6 16 -9 -8 -40 -14 -19 -26 -39 -26 -44 0 -44 -83 -27 -99 20 -7 18 -17
28 -30 28 -12 0 -21 -4 -21 -10 0 -5 -4 -10 -10 -10 -37 0 41 89 95 108 42 15
43 14 47 -9z"/>
<path d="M2245 1150 c-4 -23 -5 -44 -2 -46 3 -3 8 13 12 36 4 23 5 44 2 46 -3
3 -8 -13 -12 -36z"/>
<path d="M2121 1168 c-1 -9 4 -29 10 -45 l11 -28 20 38 c11 22 18 41 15 43 -2
2 -10 -7 -17 -21 l-14 -26 -12 28 c-8 18 -13 22 -13 11z"/>
<path d="M2451 1173 c1 -4 -1 -16 -5 -25 -4 -9 -6 -24 -4 -33 2 -9 8 -1 14 20
6 20 7 38 2 41 -5 3 -8 2 -7 -3z"/>
<path d="M2192 1148 c-19 -19 -15 -47 8 -45 12 1 20 8 20 19 0 10 0 21 1 25 1
13 -16 14 -29 1z m14 -24 c-4 -9 -9 -15 -11 -12 -3 3 -3 13 1 22 4 9 9 15 11
12 3 -3 3 -13 -1 -22z"/>
<path d="M2270 1140 c-13 -24 -6 -40 18 -40 15 0 15 2 2 10 -13 8 -12 10 3 10
10 0 17 8 17 20 0 26 -26 26 -40 0z m30 0 c0 -5 -5 -10 -11 -10 -5 0 -7 5 -4
10 3 6 8 10 11 10 2 0 4 -4 4 -10z"/>
<path d="M2325 1142 c-3 -7 -5 -21 -5 -30 0 -13 5 -11 21 8 20 24 21 25 16 2
-3 -12 -1 -20 4 -16 5 3 9 16 9 29 0 17 -5 23 -20 22 -11 -1 -22 -7 -25 -15z"/>
<path d="M2390 1140 c-13 -24 -5 -40 18 -39 11 0 12 3 5 6 -19 7 -16 30 5 42
16 10 16 10 0 11 -10 0 -22 -9 -28 -20z"/>
<path d="M2476 1141 c-21 -23 -14 -40 14 -38 15 1 20 9 20 29 0 33 -10 35 -34
9z m21 -16 c-4 -8 -11 -15 -17 -15 -7 0 -7 6 0 21 13 23 26 19 17 -6z"/>
<path d="M2408 963 c-36 -42 -31 -83 10 -83 24 0 24 -1 8 -19 -17 -19 -7 -39
13 -26 5 3 12 1 16 -5 4 -6 11 -8 16 -4 5 3 0 17 -11 31 l-21 26 26 27 c29 30
32 55 9 64 -27 11 -50 7 -66 -11z m62 -10 c0 -12 -43 -53 -57 -53 -17 0 -16
11 3 38 14 20 54 31 54 15z"/>
<path d="M2135 730 c-4 -23 -5 -44 -2 -46 3 -3 8 13 12 36 4 23 5 44 2 46 -3
3 -8 -13 -12 -36z"/>
<path d="M2086 751 c-4 -6 -4 -16 0 -23 4 -6 3 -8 -3 -5 -6 4 -14 0 -17 -9
-10 -25 -6 -41 5 -21 5 9 14 17 19 17 5 0 11 -8 13 -17 3 -10 5 -5 6 12 1 35
-13 63 -23 46z"/>
<path d="M2171 753 c1 -4 -1 -16 -5 -25 -4 -9 -6 -24 -4 -33 2 -9 8 -1 14 20
6 20 7 38 2 41 -5 3 -8 2 -7 -3z"/>
<path d="M2367 743 c-2 -5 -4 -20 -5 -35 -1 -21 3 -28 16 -27 9 0 12 3 6 5
-14 6 -6 44 8 44 5 0 6 5 3 10 -7 12 -22 13 -28 3z"/>
<path d="M2202 728 c-17 -17 -15 -48 2 -48 8 0 18 4 21 10 3 6 -1 7 -9 4 -22
-9 -21 22 2 35 9 6 12 11 7 11 -6 0 -16 -5 -23 -12z"/>
<path d="M2252 728 c-19 -19 -15 -47 8 -45 12 1 20 8 20 19 0 10 0 21 1 25 1
13 -16 14 -29 1z m14 -24 c-4 -9 -9 -15 -11 -12 -3 3 -3 13 1 22 4 9 9 15 11
12 3 -3 3 -13 -1 -22z"/>
<path d="M2300 728 c0 -9 -3 -23 -6 -32 -3 -9 -2 -16 4 -16 15 0 23 30 12 48
-9 16 -9 16 -10 0z"/>
<path d="M2325 730 c-3 -5 -2 -10 3 -10 6 0 8 -10 5 -22 -4 -19 -3 -20 6 -8 6
8 11 23 11 33 0 19 -15 23 -25 7z"/>
<path d="M2410 720 c-13 -24 -6 -40 18 -40 15 0 15 2 2 10 -13 8 -12 10 3 10
10 0 17 8 17 20 0 26 -26 26 -40 0z m30 0 c0 -5 -5 -10 -11 -10 -5 0 -7 5 -4
10 3 6 8 10 11 10 2 0 4 -4 4 -10z"/>
</g>
</svg>
