<?xml version="1.0" standalone="no"?>
<!DOCTYPE svg PUBLIC "-//W3C//DTD SVG 20010904//EN"
 "http://www.w3.org/TR/2001/REC-SVG-20010904/DTD/svg10.dtd">
<svg version="1.0" xmlns="http://www.w3.org/2000/svg"
 width="300.000000pt" height="148.000000pt" viewBox="0 0 300.000000 148.000000"
 preserveAspectRatio="xMidYMid meet">

<g transform="translate(0.000000,148.000000) scale(0.100000,-0.100000)"
fill="#000000" stroke="none">
<path d="M1405 1470 c-27 -5 -124 -26 -214 -49 -90 -22 -245 -55 -345 -72 -99
-17 -215 -42 -257 -55 -126 -40 -208 -112 -289 -255 -30 -52 -95 -162 -145
-245 -113 -186 -145 -269 -152 -384 -4 -76 -2 -90 19 -130 14 -25 40 -54 59
-65 56 -33 224 -24 699 36 125 16 173 2 301 -85 140 -96 207 -133 274 -150
129 -34 214 -18 485 91 96 39 222 88 280 108 105 37 105 37 335 46 222 8 352
22 387 40 26 14 104 138 122 194 37 120 48 321 21 412 -20 67 -72 133 -148
186 -126 90 -211 124 -524 207 -125 34 -291 82 -368 107 -77 25 -174 51 -215
59 -81 14 -244 16 -325 4z m305 -20 c36 -6 126 -30 200 -55 74 -24 253 -75
398 -114 284 -76 383 -114 491 -185 133 -89 173 -155 179 -298 8 -181 -25
-319 -102 -425 -53 -74 -77 -79 -426 -92 -259 -10 -257 -10 -600 -148 -384
-155 -464 -152 -717 24 -134 93 -192 118 -278 117 -38 0 -173 -13 -300 -28
-269 -33 -416 -38 -460 -16 -94 48 -100 221 -14 393 29 56 156 275 265 452 45
74 113 139 180 173 54 27 164 55 354 87 85 14 218 42 295 62 77 19 172 41 210
48 86 16 238 18 325 5z"/>
<path d="M1378 1030 c-4 -8 -9 -37 -12 -65 l-5 -50 15 45 c14 43 15 105 2 70z"/>
<path d="M1930 1000 c-15 -50 -34 -78 -44 -62 -3 5 4 21 15 36 11 14 16 26 10
26 -15 0 -44 -47 -39 -62 3 -7 16 -13 31 -13 23 -1 27 5 37 47 15 62 7 86 -10
28z"/>
<path d="M2180 1014 c0 -15 -4 -23 -11 -19 -16 10 -49 -25 -49 -51 0 -19 5
-23 26 -22 28 3 36 17 48 81 4 23 3 37 -4 37 -5 0 -10 -12 -10 -26z m-10 -43
c0 -20 -27 -48 -37 -37 -9 8 14 56 27 56 5 0 10 -8 10 -19z"/>
<path d="M979 1020 c-9 -5 -22 -23 -29 -40 -11 -27 -11 -34 3 -47 13 -13 21
-14 39 -5 22 11 22 11 -4 6 -25 -5 -28 -3 -28 18 0 26 27 58 49 58 7 0 9 5 6
10 -8 12 -15 12 -36 0z"/>
<path d="M1205 1020 c3 -5 8 -10 11 -10 2 0 4 5 4 10 0 6 -5 10 -11 10 -5 0
-7 -4 -4 -10z"/>
<path d="M1692 995 c-16 -54 -13 -91 2 -41 9 29 14 35 19 23 8 -22 26 -22 44
1 12 15 13 12 8 -23 l-4 -40 13 40 c8 22 15 49 15 60 0 17 -4 15 -29 -13 l-30
-32 -13 32 -14 33 -11 -40z"/>
<path d="M1235 1003 c-21 -51 -1 -103 28 -74 8 8 6 11 -7 11 -12 0 -16 5 -12
16 3 9 6 20 6 25 0 5 7 9 16 9 14 0 14 2 0 15 -19 19 -22 19 -31 -2z"/>
<path d="M760 990 c-11 -11 -20 -29 -20 -40 0 -11 9 -29 20 -40 11 -11 29 -20
40 -20 11 0 29 9 40 20 11 11 20 29 20 40 0 11 -9 29 -20 40 -11 11 -29 20
-40 20 -11 0 -29 -9 -40 -20z m68 -12 c32 -32 -18 -87 -53 -58 -28 23 -12 70
25 70 9 0 21 -5 28 -12z"/>
<path d="M1047 982 c-18 -20 -22 -48 -9 -56 5 -3 19 -2 31 1 18 4 21 12 19 36
-4 37 -19 44 -41 19z m29 -20 c-7 -22 -36 -38 -36 -20 0 14 31 50 38 44 2 -3
1 -13 -2 -24z"/>
<path d="M1104 944 c-5 -30 -6 -54 -2 -54 4 0 8 7 8 15 0 8 6 15 13 15 20 0
47 33 47 58 0 16 -6 20 -28 20 -26 -1 -29 -5 -38 -54z m37 3 c-14 -15 -21 -17
-21 -8 0 21 33 56 38 41 3 -7 -5 -22 -17 -33z"/>
<path d="M1192 966 c-6 -22 -9 -42 -7 -44 7 -8 26 50 22 67 -2 9 -9 -2 -15
-23z"/>
<path d="M1294 975 c-21 -32 -14 -50 19 -50 25 -1 27 2 27 37 0 45 -21 51 -46
13z m26 -24 c-10 -20 -30 -29 -30 -13 0 4 8 18 17 32 19 27 30 12 13 -19z"/>
<path d="M1824 992 c-17 -11 -36 -51 -29 -62 3 -5 17 -9 30 -8 18 2 26 10 30
30 9 40 -5 58 -31 40z m16 -32 c-13 -23 -30 -35 -30 -20 0 20 21 51 31 45 6
-4 5 -13 -1 -25z"/>
<path d="M1957 960 c-5 -45 0 -50 13 -14 6 16 18 34 26 40 12 10 11 12 -10 10
-20 -1 -25 -7 -29 -36z"/>
<path d="M2014 966 c-3 -21 -4 -39 -1 -42 3 -4 9 10 13 30 3 21 4 39 1 42 -3
4 -9 -10 -13 -30z"/>
<path d="M2049 973 c-13 -35 -7 -48 24 -48 21 -1 27 5 32 33 8 44 1 51 -15 12
-16 -39 -34 -39 -25 0 8 37 -2 39 -16 3z"/>
<path d="M1475 970 c-4 -7 13 -8 52 -4 76 9 80 14 10 14 -31 0 -59 -5 -62 -10z"/>
<path d="M945 795 c-46 -45 -24 -103 28 -76 21 11 21 11 -5 6 -15 -3 -30 0
-33 5 -9 15 23 61 46 67 10 3 16 9 13 14 -9 15 -24 10 -49 -16z"/>
<path d="M760 780 c-11 -11 -20 -29 -20 -40 0 -11 9 -29 20 -40 11 -11 29 -20
40 -20 11 0 29 9 40 20 11 11 20 29 20 40 0 11 -9 29 -20 40 -11 11 -29 20
-40 20 -11 0 -29 -9 -40 -20z m68 -12 c32 -32 -8 -80 -48 -58 -34 18 -19 70
20 70 9 0 21 -5 28 -12z"/>
<path d="M1016 774 c-3 -9 -6 -26 -6 -39 0 -18 5 -23 24 -21 18 1 27 9 34 33
6 20 6 35 1 39 -5 3 -9 -1 -9 -8 0 -19 -27 -55 -34 -47 -4 3 -2 18 3 33 6 14
7 26 2 26 -5 0 -12 -7 -15 -16z"/>
<path d="M1091 745 c0 -37 1 -38 10 -15 6 13 17 32 25 41 14 15 13 17 -10 15
-23 -1 -26 -5 -25 -41z"/>
<path d="M1145 752 c-7 -40 0 -54 10 -20 4 13 14 31 22 40 14 15 13 17 -5 15
-15 -1 -22 -11 -27 -35z"/>
<path d="M1199 766 c-15 -33 -5 -56 23 -55 l23 2 -22 4 c-13 2 -23 8 -23 13 0
5 10 10 23 12 14 2 22 10 22 23 0 30 -33 31 -46 1z m41 -6 c0 -5 -7 -10 -15
-10 -8 0 -15 5 -15 10 0 6 7 10 15 10 8 0 15 -4 15 -10z"/>
<path d="M1268 753 c-5 -38 1 -59 9 -36 3 7 14 23 25 35 l19 23 -5 -35 c-7
-39 8 -30 18 12 7 30 -8 46 -28 29 -9 -7 -16 -7 -23 0 -7 7 -12 -1 -15 -28z"/>
<path d="M1367 772 c-10 -10 -17 -26 -17 -36 0 -21 28 -32 43 -17 9 9 8 11 -4
6 -10 -4 -20 -1 -24 5 -9 14 24 52 38 43 6 -3 7 -1 3 5 -10 17 -20 15 -39 -6z"/>
<path d="M1431 772 c-16 -29 -14 -50 5 -60 21 -12 9 -33 -14 -25 -13 5 -15 3
-5 -7 20 -21 40 -4 58 50 19 56 15 78 -7 34 -18 -38 -42 -45 -28 -8 13 32 6
44 -9 16z"/>
<path d="M1714 765 c-9 -14 -14 -32 -10 -40 6 -16 41 -21 50 -6 4 5 -3 7 -14
4 -11 -3 -20 0 -20 6 0 6 9 11 19 11 24 0 33 13 25 34 -9 23 -31 19 -50 -9z
m41 -5 c-3 -5 -13 -10 -21 -10 -8 0 -12 5 -9 10 3 6 13 10 21 10 8 0 12 -4 9
-10z"/>
<path d="M1786 774 c-3 -9 -6 -26 -6 -39 0 -18 5 -23 24 -21 18 1 27 9 34 33
6 20 6 35 1 39 -5 3 -9 -1 -9 -8 0 -19 -27 -55 -34 -47 -4 3 -2 18 3 33 6 14
7 26 2 26 -5 0 -12 -7 -15 -16z"/>
<path d="M1861 745 c0 -37 1 -38 10 -15 6 13 17 32 25 41 14 15 13 17 -10 15
-23 -1 -26 -5 -25 -41z"/>
<path d="M1919 766 c-12 -26 -7 -56 10 -56 18 0 42 33 39 54 -4 31 -36 32 -49
2z m32 -18 c-9 -24 -31 -37 -31 -18 0 20 21 51 30 45 5 -3 6 -15 1 -27z"/>
<path d="M1505 760 c-4 -6 16 -8 57 -4 82 9 86 14 10 14 -33 0 -64 -4 -67 -10z"/>
<path d="M2244 564 c-10 -54 -3 -81 11 -46 11 24 15 91 6 96 -4 3 -11 -20 -17
-50z"/>
<path d="M942 563 c-15 -55 -6 -69 35 -57 l28 8 -27 4 c-31 4 -32 5 -19 49 5
18 6 35 2 37 -4 3 -13 -16 -19 -41z"/>
<path d="M2150 600 c0 -5 5 -10 11 -10 5 0 7 5 4 10 -3 6 -8 10 -11 10 -2 0
-4 -4 -4 -10z"/>
<path d="M760 570 c-11 -11 -20 -29 -20 -40 0 -26 34 -60 60 -60 11 0 29 9 40
20 11 11 20 29 20 40 0 11 -9 29 -20 40 -11 11 -29 20 -40 20 -11 0 -29 -9
-40 -20z m64 -13 c21 -16 18 -45 -6 -61 -35 -22 -74 27 -48 59 15 18 31 19 54
2z"/>
<path d="M1024 555 c-21 -32 -14 -50 19 -50 25 -1 27 2 27 37 0 45 -21 51 -46
13z m26 -24 c-10 -20 -30 -29 -30 -13 0 4 8 18 17 32 19 27 30 12 13 -19z"/>
<path d="M1096 546 c-9 -49 -2 -55 20 -17 10 17 22 31 26 31 10 0 10 -3 -2
-34 -5 -15 -6 -26 -1 -26 15 0 24 61 11 73 -8 9 -14 7 -22 -8 -11 -19 -11 -19
-18 0 -5 15 -8 11 -14 -19z"/>
<path d="M1184 555 c-18 -28 -13 -55 10 -55 10 0 13 -6 9 -16 -3 -8 -12 -13
-19 -10 -8 3 -14 1 -14 -4 0 -6 8 -10 19 -10 20 0 49 70 43 103 -5 25 -29 21
-48 -8z m22 -33 c-15 -15 -16 -15 -16 4 0 28 24 52 28 28 2 -9 -3 -24 -12 -32z"/>
<path d="M1261 562 c-6 -12 -11 -30 -11 -41 0 -16 6 -20 25 -19 19 2 28 11 36
36 14 44 5 52 -16 13 -8 -17 -20 -31 -25 -31 -13 0 -13 7 1 32 6 11 8 22 6 25
-3 2 -10 -4 -16 -15z"/>
<path d="M1354 572 c-17 -11 -36 -51 -29 -62 3 -5 17 -9 30 -8 18 2 26 10 30
30 9 40 -5 58 -31 40z m16 -32 c-13 -23 -30 -35 -30 -20 0 20 21 51 31 45 6
-4 5 -13 -1 -25z"/>
<path d="M1414 555 c-18 -28 -13 -55 10 -55 10 0 13 -6 9 -16 -3 -8 -12 -13
-19 -10 -8 3 -14 1 -14 -4 0 -6 8 -10 19 -10 20 0 49 70 43 103 -5 25 -29 21
-48 -8z m22 -33 c-15 -15 -16 -15 -16 4 0 28 24 52 28 28 2 -9 -3 -24 -12 -32z"/>
<path d="M1492 568 c-17 -17 -15 -57 4 -65 8 -3 20 -1 26 5 8 8 5 9 -11 5 -11
-3 -21 -1 -21 5 0 6 10 12 23 14 14 2 22 10 22 23 0 23 -25 31 -43 13z m33
-18 c-3 -5 -10 -10 -16 -10 -5 0 -9 5 -9 10 0 6 7 10 16 10 8 0 12 -4 9 -10z"/>
<path d="M1850 570 c-12 -8 -13 -13 -2 -30 17 -27 15 -33 -8 -27 -11 3 -18 1
-14 -4 7 -12 41 -11 49 2 4 5 -1 19 -10 29 -17 19 -5 37 17 24 7 -4 8 -3 4 4
-9 14 -16 15 -36 2z"/>
<path d="M1896 540 c-3 -19 -8 -46 -11 -60 -5 -25 -5 -25 6 -2 7 12 17 22 24
22 19 0 47 37 43 57 -2 12 -12 18 -30 18 -22 1 -27 -4 -32 -35z m52 14 c-2 -9
-14 -24 -27 -32 l-24 -16 17 32 c17 33 40 44 34 16z"/>
<path d="M1987 562 c-18 -20 -22 -48 -9 -56 5 -3 19 -2 31 1 18 4 21 12 19 36
-4 37 -19 44 -41 19z m29 -20 c-7 -22 -36 -38 -36 -20 0 14 31 50 38 44 2 -3
1 -13 -2 -24z"/>
<path d="M2058 574 c-6 -9 -11 -50 -9 -69 1 -5 8 0 16 12 10 14 12 29 7 44 -5
12 -11 18 -14 13z"/>
<path d="M2087 574 c-12 -12 -8 -26 5 -18 8 5 9 -2 4 -27 -4 -23 -3 -30 4 -23
15 15 18 66 4 71 -5 2 -13 0 -17 -3z"/>
<path d="M2148 575 c-3 -6 -8 -26 -12 -45 l-6 -35 16 34 c14 30 16 68 2 46z"/>
<path d="M2193 573 c-18 -7 -16 -23 5 -46 16 -19 16 -20 -10 -15 -15 3 -25 1
-22 -3 7 -13 42 -11 49 2 4 5 -1 19 -10 29 -17 19 -5 37 17 24 7 -4 8 -3 4 4
-8 13 -13 14 -33 5z"/>
<path d="M2277 574 c-11 -12 -8 -26 4 -18 8 5 10 -3 7 -25 -3 -18 -1 -28 4
-23 13 13 15 64 2 69 -5 2 -13 0 -17 -3z"/>
<path d="M1625 550 c-4 -6 16 -8 57 -4 82 9 86 14 10 14 -33 0 -64 -4 -67 -10z"/>
</g>
</svg>
